<?xml version="1.0" standalone="no"?>
<!DOCTYPE svg PUBLIC "-//W3C//DTD SVG 20010904//EN"
 "http://www.w3.org/TR/2001/REC-SVG-20010904/DTD/svg10.dtd">
<svg version="1.0" xmlns="http://www.w3.org/2000/svg"
 width="920.000000pt" height="460.000000pt" viewBox="0 0 920.000000 460.000000"
 preserveAspectRatio="xMidYMid meet">

<g transform="translate(0.000000,460.000000) scale(0.100000,-0.100000)"
fill="#000000" stroke="none">
<path d="M4630 4305 c0 -8 4 -15 10 -15 5 0 7 7 4 15 -4 8 -8 15 -10 15 -2 0
-4 -7 -4 -15z"/>
<path d="M4670 4193 c0 -13 5 -23 10 -23 6 0 10 -11 10 -25 0 -14 5 -25 10
-25 6 0 10 -11 10 -25 0 -14 5 -25 10 -25 6 0 10 -5 10 -10 0 -6 9 -30 20 -52
11 -23 20 -48 20 -55 0 -7 5 -13 10 -13 6 0 10 -11 10 -25 0 -14 5 -25 10 -25
6 0 10 -5 10 -11 0 -6 13 -39 29 -73 16 -33 49 -104 74 -156 24 -52 54 -117
67 -145 12 -27 48 -104 80 -170 32 -66 67 -140 79 -164 11 -25 21 -51 21 -58
0 -7 3 -13 8 -13 8 0 32 -49 32 -67 0 -7 5 -13 10 -13 6 0 10 -9 10 -20 0 -11
4 -20 8 -20 5 0 15 -18 22 -40 7 -22 17 -40 22 -40 17 0 7 41 -22 90 -16 28
-30 60 -30 71 0 11 -4 17 -10 14 -6 -4 -10 5 -10 19 0 14 -4 26 -10 26 -5 0
-10 9 -10 20 0 11 -4 20 -10 20 -5 0 -10 9 -10 20 0 11 -4 20 -10 20 -5 0 -10
9 -10 20 0 11 -4 20 -10 20 -5 0 -10 9 -10 20 0 11 -4 20 -10 20 -5 0 -10 7
-10 15 0 18 -20 57 -35 67 -5 4 -6 8 -1 8 4 0 1 11 -8 25 -9 13 -16 31 -16 40
0 8 -4 15 -10 15 -5 0 -10 9 -10 20 0 11 -4 20 -10 20 -5 0 -10 7 -10 15 0 18
-62 149 -72 153 -5 2 -8 13 -8 23 0 11 -22 64 -49 117 -26 54 -52 109 -56 122
-4 14 -29 71 -56 127 -27 56 -49 106 -49 110 0 4 -9 19 -20 33 l-20 25 0 -22z"/>
<path d="M4080 3226 c0 -14 5 -26 10 -26 6 0 10 9 10 19 0 11 -4 23 -10 26 -6
4 -10 -5 -10 -19z"/>
<path d="M4116 3235 c-13 -34 -5 -58 28 -91 19 -19 32 -34 29 -34 -3 0 16 -19
43 -42 26 -24 71 -67 99 -95 29 -29 57 -53 63 -53 7 0 12 -4 12 -8 0 -8 63
-42 77 -42 7 0 -37 48 -76 83 -13 12 -34 32 -47 44 -15 15 -24 19 -27 10 -3
-7 -6 -3 -6 7 -1 11 -4 16 -7 13 -6 -6 -54 23 -80 48 -7 6 -24 35 -38 63 -48
95 -63 115 -70 97z"/>
<path d="M5285 2896 c-5 -21 -5 -31 3 -34 7 -2 12 -12 12 -23 0 -10 5 -19 10
-19 6 0 10 -8 10 -18 0 -10 4 -22 9 -27 17 -18 51 -85 51 -100 0 -8 5 -15 10
-15 6 0 10 -9 10 -20 0 -11 3 -20 8 -20 4 0 18 -25 32 -55 14 -30 28 -55 33
-55 4 0 7 -9 7 -20 0 -11 5 -20 10 -20 6 0 10 -9 10 -20 0 -11 5 -20 10 -20 6
0 10 -9 10 -21 0 -11 5 -17 10 -14 6 3 10 -1 10 -9 0 -9 9 -31 20 -51 11 -20
20 -42 20 -51 0 -8 5 -12 10 -9 6 3 10 -2 10 -12 0 -11 4 -23 9 -29 5 -5 34
-56 64 -114 30 -58 63 -121 74 -141 28 -48 120 -221 157 -294 17 -33 34 -62
37 -65 3 -3 21 -34 40 -70 18 -36 37 -66 41 -68 5 -2 8 -10 8 -19 0 -15 23
-43 36 -43 4 0 -1 9 -11 20 -10 11 -15 20 -11 20 3 0 0 10 -9 23 -8 13 -12 27
-8 32 5 4 2 5 -4 1 -9 -5 -13 0 -13 14 0 12 -4 18 -10 15 -5 -3 -10 3 -10 14
0 12 -4 21 -10 21 -5 0 -10 9 -10 20 0 11 -4 20 -10 20 -5 0 -10 9 -10 21 0
11 -4 17 -10 14 -6 -4 -10 5 -10 20 0 15 -4 24 -10 20 -5 -3 -10 3 -10 14 0
12 -4 21 -10 21 -5 0 -10 9 -10 20 0 11 -4 20 -10 20 -5 0 -10 7 -10 15 0 8
-4 15 -10 15 -5 0 -10 9 -10 21 0 11 -4 17 -10 14 -6 -4 -10 5 -10 20 0 15 -4
24 -10 20 -5 -3 -10 3 -10 14 0 12 -4 21 -10 21 -5 0 -10 9 -10 20 0 11 -4 20
-10 20 -5 0 -10 9 -10 20 0 11 -4 20 -10 20 -5 0 -10 9 -10 20 0 11 -4 20 -10
20 -5 0 -10 7 -10 15 0 8 -4 15 -10 15 -5 0 -10 8 -10 18 0 10 -8 27 -17 38
-10 11 -19 26 -21 34 -2 8 -7 17 -10 20 -4 3 -8 12 -10 20 -2 8 -8 17 -13 18
-5 2 -9 12 -9 23 0 10 -4 19 -10 19 -5 0 -10 6 -10 14 0 13 -26 67 -86 175
-13 24 -24 50 -24 58 0 7 -4 13 -10 13 -5 0 -10 9 -10 20 0 11 -4 20 -10 20
-5 0 -10 9 -10 20 0 11 -3 20 -7 20 -9 0 -33 49 -33 67 0 7 -4 13 -10 13 -5 0
-10 12 -10 27 0 14 -3 23 -6 20 -8 -7 -74 119 -74 140 0 7 -4 13 -9 13 -5 0
-11 12 -13 28 l-4 27 -9 -29z"/>
<path d="M4412 1956 c-29 -13 -61 -29 -71 -37 -9 -8 -23 -15 -31 -17 -17 -4
-80 -72 -80 -87 0 -6 -9 -17 -20 -25 -11 -8 -20 -22 -20 -32 0 -9 -4 -19 -9
-23 -5 -3 -13 -20 -17 -37 -3 -18 -12 -42 -19 -53 -12 -18 -25 -76 -54 -241
-13 -74 -15 -454 -2 -454 5 0 12 6 15 13 3 6 2 -1 -1 -18 -4 -16 -12 -35 -19
-42 -15 -15 -38 -17 -29 -3 3 6 -1 10 -9 10 -9 0 -16 -4 -16 -10 0 -5 -11 -10
-24 -10 -14 0 -28 -4 -31 -10 -3 -5 -17 -10 -31 -10 -13 0 -24 -4 -24 -8 0 -4
-14 -9 -31 -10 -17 -1 -39 -7 -49 -12 -10 -5 -31 -11 -48 -12 -17 -1 -28 -6
-26 -10 3 -4 -11 -8 -30 -8 -20 0 -36 -4 -36 -10 0 -5 -16 -10 -35 -10 -19 0
-35 -4 -35 -10 0 -5 -8 -10 -17 -10 -21 0 -90 -23 -99 -33 -4 -4 -16 -7 -26
-7 -10 0 -18 -4 -18 -10 0 -5 -13 -10 -30 -10 -16 0 -30 -4 -30 -10 0 -5 -6
-10 -13 -10 -12 0 -80 -29 -119 -50 -10 -6 -25 -10 -33 -10 -8 0 -15 -4 -15
-10 0 -5 -7 -10 -15 -10 -8 0 -23 -4 -33 -9 -68 -36 -146 -71 -158 -71 -8 0
-14 -3 -14 -7 0 -9 -49 -33 -67 -33 -7 0 -13 -5 -13 -10 0 -6 -3 -9 -7 -8 -8
2 -103 -42 -113 -52 -3 -3 -46 -26 -96 -52 -78 -41 -109 -53 -145 -57 -8 -1
-149 -138 -149 -145 0 -3 14 -6 30 -6 17 0 30 4 30 8 0 5 16 14 35 22 19 8 35
16 35 19 0 4 25 17 55 31 30 14 55 28 55 33 0 4 9 7 20 7 11 0 20 3 20 8 0 4
10 12 23 18 72 35 154 76 167 85 32 19 110 59 115 58 3 0 43 17 88 39 202 98
448 202 479 202 11 0 16 5 13 10 -4 6 7 10 25 10 16 0 38 4 48 10 26 14 139
51 162 53 11 1 20 5 20 9 0 4 23 8 50 8 28 0 50 4 50 9 0 5 19 11 43 14 47 5
147 30 164 40 8 5 9 16 1 40 -17 51 -19 440 -3 512 8 33 16 75 19 93 7 50 50
182 58 182 5 0 8 9 8 20 0 11 4 20 9 20 5 0 12 11 15 24 8 31 71 98 116 122
19 10 38 23 41 27 3 5 8 8 10 7 2 -1 17 4 33 10 32 12 197 15 242 4 16 -4 45
-15 65 -25 20 -10 39 -15 43 -12 3 4 6 1 6 -5 0 -7 6 -12 13 -12 6 -1 28 -14
47 -30 19 -17 40 -30 48 -30 7 0 11 -4 8 -9 -6 -8 26 -51 38 -51 8 0 -23 49
-55 87 -14 17 -48 46 -75 65 -47 32 -59 39 -129 68 -16 7 -77 14 -135 15 -89
2 -113 -1 -158 -19z"/>
<path d="M4971 1714 c0 -11 3 -14 6 -6 3 7 2 16 -1 19 -3 4 -6 -2 -5 -13z"/>
<path d="M5731 1342 c29 -21 43 -28 179 -82 58 -23 123 -50 145 -59 22 -9 43
-15 47 -14 5 2 8 -2 8 -7 0 -6 8 -10 18 -10 10 0 22 -4 28 -9 5 -6 21 -12 36
-15 15 -2 32 -7 38 -11 17 -10 11 23 -6 37 -44 35 -65 59 -59 67 3 5 1 12 -5
16 -5 3 -10 1 -10 -6 0 -7 -3 -9 -7 -6 -3 4 -17 0 -30 -8 -22 -14 -23 -14 -23
5 0 12 -4 18 -10 15 -5 -3 -10 -1 -10 4 0 6 -16 11 -35 11 -19 0 -52 9 -72 20
-21 11 -53 23 -73 26 -19 3 -62 15 -94 25 -76 24 -96 25 -65 1z"/>
<path d="M6112 1320 c0 -14 2 -19 5 -12 2 6 2 18 0 25 -3 6 -5 1 -5 -13z"/>
<path d="M6130 1285 c0 -8 4 -15 8 -15 5 0 9 7 9 15 0 8 -4 15 -9 15 -4 0 -8
-7 -8 -15z"/>
<path d="M5071 911 c-28 -28 -27 -36 7 -49 52 -21 130 -40 136 -35 3 4 6 1 6
-5 0 -7 16 -12 40 -12 22 0 40 -4 40 -10 0 -5 18 -10 40 -10 22 0 40 -3 40 -8
0 -4 36 -18 80 -32 44 -14 80 -28 80 -32 0 -5 3 -7 8 -7 4 1 23 1 42 0 27 -1
31 -4 20 -11 -11 -7 -8 -10 16 -10 16 0 34 -4 40 -8 5 -4 27 -14 49 -21 22 -8
60 -23 85 -33 25 -11 54 -24 65 -28 42 -17 103 -44 180 -80 44 -21 106 -50
138 -64 32 -14 71 -35 88 -46 16 -12 29 -18 29 -13 0 4 4 4 8 -2 4 -5 27 -20
52 -33 74 -39 125 -67 130 -72 3 -3 27 -17 53 -30 26 -14 57 -33 67 -42 11
-10 26 -18 35 -18 8 0 15 -4 15 -10 0 -5 7 -10 16 -10 8 0 22 -7 30 -15 17
-17 50 -20 58 -6 9 14 -4 41 -20 41 -8 0 -14 5 -14 10 0 6 -10 10 -22 10 -13
0 -39 10 -58 21 -19 12 -60 35 -90 52 -30 16 -71 42 -90 57 -55 43 -439 243
-467 243 -7 0 -13 4 -13 9 0 4 -9 8 -20 8 -11 0 -20 5 -20 10 0 6 -7 10 -15
10 -15 0 -25 4 -72 28 -13 7 -30 12 -38 12 -8 0 -15 5 -15 10 0 6 -14 10 -31
10 -17 0 -28 4 -24 10 4 6 -7 10 -24 10 -17 0 -31 3 -31 8 0 4 -36 18 -80 32
-44 14 -80 28 -80 32 0 5 -13 8 -30 8 -16 0 -30 5 -30 10 0 6 -10 10 -22 10
-21 0 -79 16 -108 30 -8 3 -36 13 -62 21 -27 7 -48 16 -48 19 0 3 -12 7 -27 8
-15 1 -30 7 -33 13 -4 5 -22 11 -41 11 -19 1 -37 5 -40 11 -4 5 -16 0 -28 -12z"/>
<path d="M6390 807 c0 -4 5 -16 10 -27 9 -19 15 -31 45 -87 7 -13 15 -20 18
-16 4 3 7 0 7 -9 0 -14 70 -153 96 -193 12 -17 14 -17 14 -2 0 9 -4 17 -10 17
-5 0 -10 9 -10 20 0 11 -4 20 -10 20 -5 0 -10 9 -10 20 0 11 -4 20 -10 20 -5
0 -10 9 -10 20 0 11 -4 20 -10 20 -5 0 -10 7 -10 15 0 8 -4 15 -10 15 -5 0
-10 8 -10 18 0 10 -9 28 -20 40 -11 12 -20 28 -20 37 0 9 -4 13 -10 10 -5 -3
-10 2 -10 12 -1 16 -30 66 -30 50z"/>
<path d="M6646 335 c4 -8 8 -15 10 -15 2 0 4 7 4 15 0 8 -4 15 -10 15 -5 0 -7
-7 -4 -15z"/>
</g>
</svg>
