<?xml version="1.0" standalone="no"?>
<!DOCTYPE svg PUBLIC "-//W3C//DTD SVG 20010904//EN"
 "http://www.w3.org/TR/2001/REC-SVG-20010904/DTD/svg10.dtd">
<svg version="1.0" xmlns="http://www.w3.org/2000/svg"
 width="600.000000pt" height="600.000000pt" viewBox="0 0 600.000000 600.000000"
 preserveAspectRatio="xMidYMid meet">

<g transform="translate(0.000000,600.000000) scale(0.100000,-0.100000)"
fill="#000000" stroke="none">
<path d="M2580 5238 c-210 -419 -379 -769 -377 -778 2 -9 133 -189 291 -399
158 -211 286 -384 284 -386 -1 -2 -178 84 -391 191 -214 107 -390 194 -392
194 -2 0 -452 -897 -999 -1992 -794 -1588 -996 -2001 -996 -2030 l0 -38 1038
0 1039 0 11 198 c39 645 163 1136 365 1437 65 97 191 214 277 257 239 120 499
77 696 -117 91 -90 141 -160 204 -285 155 -308 249 -737 282 -1292 l11 -198
1039 0 1038 0 -1 43 c-1 34 -48 136 -253 542 l-251 500 -420 252 c-231 139
-424 254 -430 256 -5 2 -8 7 -5 9 3 3 154 -32 335 -77 182 -46 332 -81 334
-79 3 2 -507 1028 -1133 2279 l-1137 2275 -39 0 -39 0 -381 -762z m1457 -1525
c567 -1138 1030 -2069 1028 -2071 -2 -2 -183 42 -404 97 -220 56 -407 101
-416 101 -15 0 -42 -52 -51 -100 -5 -23 6 -32 153 -119 87 -52 289 -173 448
-269 160 -96 351 -211 425 -255 74 -43 145 -87 157 -96 13 -9 111 -195 233
-439 115 -233 210 -425 210 -427 0 -3 -398 -5 -884 -5 l-883 0 -7 61 c-3 34
-6 84 -6 110 0 27 -7 95 -14 151 -8 57 -22 160 -30 230 -22 173 -77 413 -136
590 -164 492 -424 767 -764 810 -428 54 -762 -229 -956 -810 -59 -177 -114
-417 -136 -590 -8 -70 -22 -173 -30 -230 -7 -56 -14 -124 -14 -151 0 -26 -3
-76 -6 -110 l-7 -61 -883 0 c-486 0 -884 2 -884 4 0 2 421 848 935 1880 l934
1876 403 -200 c222 -110 424 -211 449 -225 26 -14 55 -25 65 -25 23 0 88 76
81 93 -2 7 -160 220 -351 475 -190 254 -346 467 -346 472 0 14 644 1300 651
1300 3 0 469 -930 1036 -2067z"/>
</g>
</svg>
